<?xml version="1.0" encoding="UTF-8"?>
<!DOCTYPE svg PUBLIC "-//W3C//DTD SVG 1.1//EN" "http://www.w3.org/Graphics/SVG/1.1/DTD/svg11.dtd">
<!-- Creator: CorelDRAW X5 -->
<svg xmlns="http://www.w3.org/2000/svg" xml:space="preserve" width="8.5in" height="11in" style="shape-rendering:geometricPrecision; text-rendering:geometricPrecision; image-rendering:optimizeQuality; fill-rule:evenodd; clip-rule:evenodd"
viewBox="0 0 8500 11000"
 xmlns:xlink="http://www.w3.org/1999/xlink"
 version="1.1">
 <defs>
  <style type="text/css">
   <![CDATA[
    .fil0 {fill:#F58634}
   ]]>
  </style>
 </defs>
 <g id="Layer_x0020_1">
  <metadata id="CorelCorpID_0Corel-Layer"/>
  <g id="_237516944">
   <g>
    <path class="fil0" d="M6917 1250l-5335 0c-138,0 -249,111 -249,249l0 8002c0,101 61,192 154,230 31,13 63,19 95,19 65,0 128,-25 176,-73l2491 -2491 2491 2491c71,71 178,93 271,54 93,-39 154,-129 154,-230l0 -8002c0,-138 -111,-249 -249,-249zm-2667 5335c-66,0 -129,26 -176,73l-2242 2242 0 -7152 4837 0 0 7152 -2242 -2242c-47,-47 -110,-73 -176,-73z"/>
   </g>
  </g>
  <g id="_237517208">
  </g>
  <g id="_237517712">
  </g>
  <g id="_237518024">
  </g>
  <g id="_237518336">
  </g>
  <g id="_237518648">
  </g>
  <g id="_237518960">
  </g>
  <g id="_237519272">
  </g>
  <g id="_237519584">
  </g>
  <g id="_237519896">
  </g>
  <g id="_237520208">
  </g>
  <g id="_237520520">
  </g>
  <g id="_237520832">
  </g>
  <g id="_237521144">
  </g>
  <g id="_237521456">
  </g>
  <g id="_237521768">
  </g>
 </g>
</svg>
