<?xml version="1.0" encoding="UTF-8"?>
<!DOCTYPE svg PUBLIC "-//W3C//DTD SVG 1.1//EN" "http://www.w3.org/Graphics/SVG/1.1/DTD/svg11.dtd">
<!-- Creator: CorelDRAW X5 -->
<svg xmlns="http://www.w3.org/2000/svg" xml:space="preserve" width="8.5in" height="11in" style="shape-rendering:geometricPrecision; text-rendering:geometricPrecision; image-rendering:optimizeQuality; fill-rule:evenodd; clip-rule:evenodd"
viewBox="0 0 8500 11000"
 xmlns:xlink="http://www.w3.org/1999/xlink">
 <defs>
  <style type="text/css">
   <![CDATA[
    .fil0 {fill:#F58634}
   ]]>
  </style>
 </defs>
 <g id="Layer_x0020_1">
  <metadata id="CorelCorpID_0Corel-Layer"/>
  <path class="fil0" d="M7621 5024c0,0 0,0 -1,-1l-2895 -2895c-123,-123 -287,-191 -462,-191 -175,0 -339,68 -462,191l-2894 2894c-1,1 -2,2 -3,3 -253,255 -253,668 1,923 116,116 269,183 434,191 7,1 13,1 20,1l115 0 0 2130c0,422 343,765 765,765l1133 0c115,0 208,-93 208,-208l0 -1670c0,-192 157,-349 349,-349l668 0c192,0 349,156 349,349l0 1670c0,115 93,208 208,208l1133 0c422,0 765,-343 765,-765l0 -2130 107 0c174,0 339,-68 462,-191 254,-255 255,-669 0,-924zm-294 630c-45,45 -105,70 -168,70l-315 0c-115,0 -208,93 -208,208l0 2338c0,192 -156,349 -349,349l-925 0 0 -1462c0,-422 -343,-765 -765,-765l-668 0c-422,0 -765,343 -765,765l0 1462 -925 0c-192,0 -349,-156 -349,-349l0 -2338c0,-115 -93,-208 -208,-208l-310 0c-3,0 -6,0 -10,0 -62,-1 -120,-26 -164,-69 -93,-93 -93,-243 0,-336 0,0 0,0 0,0l0 0 2895 -2895c45,-45 104,-70 168,-70 63,0 123,25 168,70l2894 2894c0,0 1,1 1,1 92,93 92,243 0,336l0 0zm0 0z"/>
 </g>
</svg>
