<?xml version="1.0" encoding="UTF-8"?>
<!DOCTYPE svg PUBLIC "-//W3C//DTD SVG 1.1//EN" "http://www.w3.org/Graphics/SVG/1.1/DTD/svg11.dtd">
<!-- Creator: CorelDRAW X5 -->
<svg xmlns="http://www.w3.org/2000/svg" xml:space="preserve" width="8.5in" height="11in" style="shape-rendering:geometricPrecision; text-rendering:geometricPrecision; image-rendering:optimizeQuality; fill-rule:evenodd; clip-rule:evenodd"
viewBox="0 0 8500 11000"
 xmlns:xlink="http://www.w3.org/1999/xlink">
 <defs>
  <style type="text/css">
   <![CDATA[
    .fil0 {fill:#F58634}
   ]]>
  </style>
 </defs>
 <g id="Layer_x0020_1">
  <metadata id="CorelCorpID_0Corel-Layer"/>
  <path class="fil0" d="M3837 1771c0,-96 -78,-174 -174,-174l-3142 0c-96,0 -174,78 -174,174l0 3142c0,96 78,174 174,174l3142 0c96,0 174,-78 174,-174l0 -3142zm-347 2969l-2795 0 0 -2795 2795 0 0 2795zm0 0z"/>
  <path class="fil0" d="M8160 1771c0,-96 -78,-174 -174,-174l-3142 0c-96,0 -174,78 -174,174l0 3142c0,96 78,174 174,174l3142 0c96,0 174,-78 174,-174l0 -3142zm-347 2969l-2795 0 0 -2795 2795 0 0 2795zm0 0z"/>
  <path class="fil0" d="M3837 6094c0,-96 -78,-174 -174,-174l-3142 0c-96,0 -174,78 -174,174l0 3142c0,96 78,174 174,174l3142 0c96,0 174,-78 174,-174l0 -3142zm-347 2951l-2795 0 0 -2778 2795 0 0 2778zm0 0z"/>
  <path class="fil0" d="M8160 6094c0,-96 -78,-174 -174,-174l-3142 0c-96,0 -174,78 -174,174l0 3142c0,96 78,174 174,174l3142 0c96,0 174,-78 174,-174l0 -3142zm-347 2951l-2795 0 0 -2778 2795 0 0 2778zm0 0z"/>
 </g>
</svg>
